# xmcd CD database file
#
# Track frame offsets:
#	180
#	11568
#	21818
#	32162
#	46808
#	58629
#	71416
#	86902
#	100252
#	116428
#	126076
#	136651
#
# Disc length: 2011 seconds
#
# Revision: 0
# Processed by: cddbd v1.5.2PL0 Copyright (c) Steve Scherf et al.
# Submitted via: CDex 1.51
#
DISCID=9707d90c
DTITLE=Don Gibson - A Legend In My Time
DYEAR=1900
DGENRE=Country
TTITLE0=(I'd Be ) A Legend In My Time
TTITLE1=Sea Of Heartbreak
TTITLE2=Lonesome Number One
TTITLE3=I Can't Stop Loving You
TTITLE4=Oh Lonesome Me
TTITLE5=To Soon To Know
TTITLE6=Sweet Dreams
TTITLE7=There Goes My Everything
TTITLE8=Green Green Grass Of Home
TTITLE9=Take These Chains From My Heart
TTITLE10=Funny Familiar Forgotton Feelings
TTITLE11=You Win Again Again
EXTD=
EXTT0=
EXTT1=
EXTT2=
EXTT3=
EXTT4=
EXTT5=
EXTT6=
EXTT7=
EXTT8=
EXTT9=
EXTT10=
EXTT11=
PLAYORDER=
